<mxfile host="app.diagrams.net" agent="Mozilla/5.0 (Windows NT 10.0; Win64; x64) AppleWebKit/537.36 (KHTML, like Gecko) Chrome/131.0.0.0 Safari/537.36" version="25.0.1">
  <diagram name="Page-1" id="jzv6jbVm1_AIKcYgl5ZX">
    <mxGraphModel>
      <root>
        <mxCell id="0" />
        <mxCell id="1" parent="0" />
        <mxCell id="2" value="Footer" style="whiteSpace=wrap;strokeWidth=2;verticalAlign=top;" vertex="1" parent="1">
          <mxGeometry x="8" y="33" width="465" height="248" as="geometry" />
        </mxCell>
        <mxCell id="3" value="Contact Info" style="whiteSpace=wrap;strokeWidth=2;" vertex="1" parent="2">
          <mxGeometry x="43" y="170" width="149" height="49" as="geometry" />
        </mxCell>
        <mxCell id="4" value="Social Media Icons" style="rounded=1;arcSize=40;strokeWidth=2" vertex="1" parent="2">
          <mxGeometry x="260" y="46" width="160" height="49" as="geometry" />
        </mxCell>
        <mxCell id="5" value="Â© 2022 Company Name" style="rounded=1;arcSize=40;strokeWidth=2" vertex="1" parent="2">
          <mxGeometry x="242" y="170" width="196" height="49" as="geometry" />
        </mxCell>
        <mxCell id="6" value="" style="curved=1;dashed=1;dashPattern=2 3;startArrow=none;endArrow=block;exitX=0.5;exitY=0.99;entryX=0.5;entryY=-0.01;" edge="1" parent="2" source="4" target="5">
          <mxGeometry relative="1" as="geometry">
            <Array as="points" />
          </mxGeometry>
        </mxCell>
        <mxCell id="7" value="MainContent" style="whiteSpace=wrap;strokeWidth=2;" vertex="1" parent="1">
          <mxGeometry x="730" y="354" width="368" height="465" as="geometry" />
        </mxCell>
        <mxCell id="8" value="Header" style="whiteSpace=wrap;strokeWidth=2;" vertex="1" parent="1">
          <mxGeometry x="508" y="8" width="191" height="958" as="geometry" />
        </mxCell>
        <mxCell id="9" value="Logo" style="whiteSpace=wrap;strokeWidth=2;" vertex="1" parent="1">
          <mxGeometry x="570" y="133" width="94" height="49" as="geometry" />
        </mxCell>
        <mxCell id="10" value="Home" style="rounded=1;arcSize=40;strokeWidth=2" vertex="1" parent="1">
          <mxGeometry x="553" y="379" width="71" height="49" as="geometry" />
        </mxCell>
        <mxCell id="11" value="About" style="rounded=1;arcSize=40;strokeWidth=2" vertex="1" parent="1">
          <mxGeometry x="552" y="501" width="74" height="49" as="geometry" />
        </mxCell>
        <mxCell id="12" value="Products" style="rounded=1;arcSize=40;strokeWidth=2" vertex="1" parent="1">
          <mxGeometry x="543" y="623" width="92" height="49" as="geometry" />
        </mxCell>
        <mxCell id="13" value="Contact" style="rounded=1;arcSize=40;strokeWidth=2" vertex="1" parent="1">
          <mxGeometry x="546" y="745" width="87" height="49" as="geometry" />
        </mxCell>
        <mxCell id="14" value="Login" style="rounded=1;arcSize=40;strokeWidth=2" vertex="1" parent="1">
          <mxGeometry x="555" y="892" width="68" height="49" as="geometry" />
        </mxCell>
        <mxCell id="15" value="Hero Image" style="whiteSpace=wrap;strokeWidth=2;" vertex="1" parent="1">
          <mxGeometry x="860" y="379" width="142" height="49" as="geometry" />
        </mxCell>
        <mxCell id="16" value="Feature Section" style="whiteSpace=wrap;strokeWidth=2;" vertex="1" parent="1">
          <mxGeometry x="844" y="501" width="173" height="49" as="geometry" />
        </mxCell>
        <mxCell id="17" value="News Section" style="whiteSpace=wrap;strokeWidth=2;" vertex="1" parent="1">
          <mxGeometry x="853" y="623" width="155" height="49" as="geometry" />
        </mxCell>
        <mxCell id="18" value="Product Section" style="whiteSpace=wrap;strokeWidth=2;" vertex="1" parent="1">
          <mxGeometry x="844" y="745" width="173" height="49" as="geometry" />
        </mxCell>
        <mxCell id="19" value="Product 1" style="rounded=1;arcSize=40;strokeWidth=2" vertex="1" parent="1">
          <mxGeometry x="733" y="892" width="98" height="49" as="geometry" />
        </mxCell>
        <mxCell id="20" value="Product 2" style="rounded=1;arcSize=40;strokeWidth=2" vertex="1" parent="1">
          <mxGeometry x="881" y="892" width="98" height="49" as="geometry" />
        </mxCell>
        <mxCell id="21" value="Product 3" style="rounded=1;arcSize=40;strokeWidth=2" vertex="1" parent="1">
          <mxGeometry x="1030" y="892" width="98" height="49" as="geometry" />
        </mxCell>
        <mxCell id="22" value="Clickable" style="curved=1;startArrow=none;endArrow=block;exitX=0.45;exitY=0.99;entryX=0.51;entryY=0;" edge="1" parent="1" source="9" target="10">
          <mxGeometry relative="1" as="geometry">
            <Array as="points">
              <mxPoint x="589" y="318" />
            </Array>
          </mxGeometry>
        </mxCell>
        <mxCell id="23" value="Clickable" style="curved=1;startArrow=none;endArrow=block;exitX=0.51;exitY=1;entryX=0.5;entryY=0;" edge="1" parent="1" source="10" target="11">
          <mxGeometry relative="1" as="geometry">
            <Array as="points" />
          </mxGeometry>
        </mxCell>
        <mxCell id="24" value="Clickable" style="curved=1;startArrow=none;endArrow=block;exitX=0.5;exitY=1;entryX=0.5;entryY=0;" edge="1" parent="1" source="11" target="12">
          <mxGeometry relative="1" as="geometry">
            <Array as="points" />
          </mxGeometry>
        </mxCell>
        <mxCell id="25" value="Clickable" style="curved=1;startArrow=none;endArrow=block;exitX=0.5;exitY=1;entryX=0.49;entryY=0;" edge="1" parent="1" source="12" target="13">
          <mxGeometry relative="1" as="geometry">
            <Array as="points" />
          </mxGeometry>
        </mxCell>
        <mxCell id="26" value="Clickable" style="curved=1;startArrow=none;endArrow=block;exitX=0.49;exitY=1;entryX=0.5;entryY=0;" edge="1" parent="1" source="13" target="14">
          <mxGeometry relative="1" as="geometry">
            <Array as="points" />
          </mxGeometry>
        </mxCell>
        <mxCell id="27" value="" style="curved=1;dashed=1;dashPattern=2 3;startArrow=none;endArrow=block;exitX=0.54;exitY=0.99;entryX=0;entryY=0.25;" edge="1" parent="1" source="9" target="15">
          <mxGeometry relative="1" as="geometry">
            <Array as="points">
              <mxPoint x="647" y="318" />
              <mxPoint x="647" y="354" />
            </Array>
          </mxGeometry>
        </mxCell>
        <mxCell id="28" value="" style="curved=1;dashed=1;dashPattern=2 3;startArrow=none;endArrow=block;exitX=0.5;exitY=1;entryX=0.5;entryY=0;" edge="1" parent="1" source="15" target="16">
          <mxGeometry relative="1" as="geometry">
            <Array as="points" />
          </mxGeometry>
        </mxCell>
        <mxCell id="29" value="" style="curved=1;dashed=1;dashPattern=2 3;startArrow=none;endArrow=block;exitX=0.5;exitY=1;entryX=0.5;entryY=0;" edge="1" parent="1" source="16" target="17">
          <mxGeometry relative="1" as="geometry">
            <Array as="points" />
          </mxGeometry>
        </mxCell>
        <mxCell id="30" value="" style="curved=1;dashed=1;dashPattern=2 3;startArrow=none;endArrow=block;exitX=0.5;exitY=1;entryX=0.5;entryY=0;" edge="1" parent="1" source="17" target="18">
          <mxGeometry relative="1" as="geometry">
            <Array as="points" />
          </mxGeometry>
        </mxCell>
        <mxCell id="31" value="Clickable" style="curved=1;startArrow=none;endArrow=block;exitX=0.08;exitY=1;entryX=0.5;entryY=0;" edge="1" parent="1" source="18" target="19">
          <mxGeometry relative="1" as="geometry">
            <Array as="points">
              <mxPoint x="782" y="819" />
            </Array>
          </mxGeometry>
        </mxCell>
        <mxCell id="32" value="Clickable" style="curved=1;startArrow=none;endArrow=block;exitX=0.5;exitY=1;entryX=0.51;entryY=0;" edge="1" parent="1" source="18" target="20">
          <mxGeometry relative="1" as="geometry">
            <Array as="points" />
          </mxGeometry>
        </mxCell>
        <mxCell id="33" value="Clickable" style="curved=1;startArrow=none;endArrow=block;exitX=0.92;exitY=1;entryX=0.5;entryY=0;" edge="1" parent="1" source="18" target="21">
          <mxGeometry relative="1" as="geometry">
            <Array as="points">
              <mxPoint x="1079" y="819" />
            </Array>
          </mxGeometry>
        </mxCell>
      </root>
    </mxGraphModel>
  </diagram>
</mxfile>
